# xmcd CD database file
# Copyright (C) 1996 Ti Kan
#
# Track frame offsets:
#  150
#  16273
#  32920
#  52425
#  68905
#  81263
#  90375
#  104633
#  117980
#  134773
#  145200
#  162685
#  179773
#  200480
#
# Disc length: 2848 seconds
#
# Revision: 1
# Processed by: cddbd v1.4b41PL1 Copyright (c) Steve Scherf et al.
# Submitted via: CDWizzard Release:4.12
#
DISCID=dc0b1e0e
DTITLE=Memphis Slim - Memphis Slim, U.S.A.
DYEAR=1900
DGENRE=
TTITLE0=Born With The Blues
TTITLE1=Just Let Me Be
TTITLE2=Red Haired Boogie
TTITLE3=Blue And Disgusted
TTITLE4=New Key To The Highway
TTITLE5=I'd Take Her To Chicago
TTITLE6=Harlem Bound
TTITLE7=El Capitan
TTITLE8=I Just Landed In Your Town
TTITLE9=John Henry
TTITLE10=I Believe I'll Settle Down
TTITLE11=Bad Luck And Troubles
TTITLE12=Late Afternoon Blues
TTITLE13=Memphis Slim U.S.A.
EXTD=Candid CCD 79024\n\nMemphis Slim:  vocals and piano\nJazz Gillum:  v
EXTD=ocals and harmonica\nArbee Stidham:  vocals and guitar\n\n[Submitted
EXTD=5/28/97 - J. Rockwall McCoy\njmccoy@efn.org]
EXTT0=
EXTT1=
EXTT2=
EXTT3=
EXTT4=
EXTT5=
EXTT6=
EXTT7=
EXTT8=
EXTT9=
EXTT10=
EXTT11=
EXTT12=
EXTT13=
PLAYORDER=
